<?xml version="1.0" standalone="no"?>
<!DOCTYPE svg PUBLIC "-//W3C//DTD SVG 20010904//EN"
 "http://www.w3.org/TR/2001/REC-SVG-20010904/DTD/svg10.dtd">
<svg version="1.0" xmlns="http://www.w3.org/2000/svg"
 width="500.000000pt" height="500.000000pt" viewBox="0 0 500.000000 500.000000"
 preserveAspectRatio="xMidYMid meet">
<metadata>
Created by potrace 1.14, written by Peter Selinger 2001-2017
</metadata>
<g transform="translate(0.000000,500.000000) scale(0.100000,-0.100000)"
fill="#000000" stroke="none">
<path d="M2589 3772 l-644 -739 -3 689 -2 688 -75 0 -75 0 0 30 0 30 -210 0
-209 0 -3 -652 c-3 -604 -4 -656 -21 -693 -52 -114 -162 -158 -239 -95 -34 28
-36 29 -41 9 -5 -19 -7 -19 -35 -5 -16 8 -48 31 -72 51 l-43 36 -64 -167 c-34
-91 -63 -172 -63 -179 0 -29 151 -119 270 -160 41 -14 102 -36 135 -47 79 -29
286 -31 381 -5 82 23 83 22 44 -18 -19 -19 -30 -35 -25 -35 14 0 797 110 827
116 l28 5 -56 -118 c-569 -1205 -944 -2047 -921 -2069 3 -3 29 25 58 63 28 37
49 59 45 48 -4 -11 -21 -55 -37 -98 -33 -88 -32 -87 -20 -87 23 0 305 413 761
1115 150 231 273 421 274 422 2 2 12 -43 23 -100 40 -202 124 -352 288 -513
229 -225 392 -307 636 -321 263 -15 501 70 675 242 95 94 151 184 193 311 31
91 31 95 31 298 l0 206 -50 0 -50 0 0 45 0 45 -425 0 -425 0 0 -159 0 -160 53
-3 52 -3 3 -42 3 -43 150 0 c167 0 165 1 130 -68 -63 -124 -246 -215 -401
-198 -126 13 -204 64 -263 173 -66 124 -86 324 -47 477 67 264 282 431 512
397 115 -17 191 -55 224 -111 10 -15 23 -26 30 -23 6 2 29 -16 50 -41 21 -25
41 -46 44 -46 3 0 66 66 139 146 l133 145 -93 90 c-170 164 -288 236 -454 280
-109 28 -332 37 -430 16 -38 -8 -71 -14 -72 -13 -1 1 20 37 48 80 l50 79 -45
-5 c-51 -6 -53 -3 -30 30 9 13 14 25 13 27 -2 2 -128 -3 -279 -11 -325 -16
-380 -17 -380 -6 0 6 461 874 686 1292 23 43 21 42 -39 -25 -34 -38 -79 -88
-100 -110 l-39 -40 48 90 c25 50 58 109 71 133 13 23 22 42 20 42 -2 0 -293
-332 -648 -738z"/>
</g>
</svg>
